<?xml version="1.0" encoding="UTF-8" standalone="no"?>
<svg
   xmlns:dc="http://purl.org/dc/elements/1.1/"
   xmlns:cc="http://creativecommons.org/ns#"
   xmlns:rdf="http://www.w3.org/1999/02/22-rdf-syntax-ns#"
   xmlns:svg="http://www.w3.org/2000/svg"
   xmlns="http://www.w3.org/2000/svg"
   xmlns:sodipodi="http://sodipodi.sourceforge.net/DTD/sodipodi-0.dtd"
   xmlns:inkscape="http://www.inkscape.org/namespaces/inkscape"
   viewBox="0 0 36 36"
   version="1.1"
   id="svg8369"
   sodipodi:docname="1f4bb.svg"
   inkscape:version="0.92.4 (5da689c313, 2019-01-14)">
  <metadata
     id="metadata8375">
    <rdf:RDF>
      <cc:Work
         rdf:about="">
        <dc:format>image/svg+xml</dc:format>
        <dc:type
           rdf:resource="http://purl.org/dc/dcmitype/StillImage" />
      </cc:Work>
    </rdf:RDF>
  </metadata>
  <defs
     id="defs8373" />
  <sodipodi:namedview
     pagecolor="#ffffff"
     bordercolor="#666666"
     borderopacity="1"
     objecttolerance="10"
     gridtolerance="10"
     guidetolerance="10"
     inkscape:pageopacity="0"
     inkscape:pageshadow="2"
     inkscape:window-width="2666"
     inkscape:window-height="1616"
     id="namedview8371"
     showgrid="false"
     inkscape:zoom="18.541911"
     inkscape:cx="5.0833164"
     inkscape:cy="18"
     inkscape:window-x="0"
     inkscape:window-y="80"
     inkscape:window-maximized="1"
     inkscape:current-layer="svg8369" />
  <path
     fill="#CCD6DD"
     d="M34 29.096c-.417-.963-.896-2.008-2-2.008h-1c1.104 0 2-.899 2-2.008V8.008C33 6.899 32.104 6 31 6H5c-1.104 0-2 .899-2 2.008V25.08c0 1.109.896 2.008 2 2.008H4c-1.104 0-1.667 1.004-2 2.008l-2 4.895C0 35.101.896 36 2 36h32c1.104 0 2-.899 2-2.008l-2-4.896z"
     id="path8359"
     style="fill:#81aaf7;fill-opacity:0.94117647" />
  <path
     fill="#9AAAB4"
     d="M.008 34.075l.006.057.17.692C.5 35.516 1.192 36 2 36h32c1.076 0 1.947-.855 1.992-1.925H.008z"
     id="path8361"
     style="fill:#5091f7;fill-opacity:0.94117647" />
  <path
     fill="#5DADEC"
     d="M31 24.075c0 .555-.447 1.004-1 1.004H6c-.552 0-1-.449-1-1.004V9.013c0-.555.448-1.004 1-1.004h24c.553 0 1 .45 1 1.004v15.062z"
     id="path8363"
     style="fill:#434343;fill-opacity:0.94117647" />
  <path
     fill="#AEBBC1"
     d="M32.906 31.042l-.76-2.175c-.239-.46-.635-.837-1.188-.837H5.11c-.552 0-.906.408-1.156 1.036l-.688 1.977c-.219.596.448 1.004 1 1.004h7.578s.937-.047 1.103-.608c.192-.648.415-1.624.463-1.796.074-.264.388-.531.856-.531h8.578c.5 0 .746.253.811.566.042.204.312 1.141.438 1.782.111.571 1.221.586 1.221.586h6.594c.551 0 1.217-.471.998-1.004z"
     id="path8365"
     style="fill:#5091f7;fill-opacity:0.94117647" />
  <path
     fill="#9AAAB4"
     d="M22.375 33.113h-7.781c-.375 0-.538-.343-.484-.675.054-.331.359-1.793.383-1.963.023-.171.274-.375.524-.375h7.015c.297 0 .49.163.55.489.059.327.302 1.641.321 1.941.019.301-.169.583-.528.583z"
     id="path8367"
     style="fill:#5091f7;fill-opacity:0.94117647" />
</svg>
