<?xml version="1.0" encoding="UTF-8" standalone="no"?>
<svg
   xmlns:dc="http://purl.org/dc/elements/1.1/"
   xmlns:cc="http://creativecommons.org/ns#"
   xmlns:rdf="http://www.w3.org/1999/02/22-rdf-syntax-ns#"
   xmlns:svg="http://www.w3.org/2000/svg"
   xmlns="http://www.w3.org/2000/svg"
   xmlns:sodipodi="http://sodipodi.sourceforge.net/DTD/sodipodi-0.dtd"
   xmlns:inkscape="http://www.inkscape.org/namespaces/inkscape"
   viewBox="0 0 36 36"
   version="1.1"
   id="svg14"
   sodipodi:docname="1f4c6.svg"
   inkscape:version="0.92.4 (5da689c313, 2019-01-14)">
  <metadata
     id="metadata20">
    <rdf:RDF>
      <cc:Work
         rdf:about="">
        <dc:format>image/svg+xml</dc:format>
        <dc:type
           rdf:resource="http://purl.org/dc/dcmitype/StillImage" />
      </cc:Work>
    </rdf:RDF>
  </metadata>
  <defs
     id="defs18" />
  <sodipodi:namedview
     pagecolor="#ffffff"
     bordercolor="#666666"
     borderopacity="1"
     objecttolerance="10"
     gridtolerance="10"
     guidetolerance="10"
     inkscape:pageopacity="0"
     inkscape:pageshadow="2"
     inkscape:window-width="2666"
     inkscape:window-height="1616"
     id="namedview16"
     showgrid="false"
     inkscape:zoom="13.111111"
     inkscape:cx="12.279661"
     inkscape:cy="11.898305"
     inkscape:window-x="0"
     inkscape:window-y="80"
     inkscape:window-maximized="1"
     inkscape:current-layer="svg14" />
  <path
     fill="#292F33"
     d="M35 32c0 2.209-1.791 4-4 4H5c-2.209 0-4-1.791-4-4V8c0-2.209 1.791-4 4-4h26c2.209 0 4 1.791 4 4v24z"
     id="path2" />
  <path
     fill="#E1E8ED"
     d="M33 32c0 1.104-.896 2-2 2H5c-1.104 0-2-.896-2-2V12c0-1.104.896-2 2-2h26c1.104 0 2 .896 2 2v20z"
     id="path4" />
  <path
     fill="#DD2E44"
     d="M33 16H3V8c0-1.104.896-2 2-2h26c1.104 0 2 .896 2 2v8z"
     id="path6" />
  <path
     d="M11 7c0 .552-.448 1-1 1s-1-.448-1-1V1c0-.552.448-1 1-1s1 .448 1 1v6zm16 0c0 .552-.447 1-1 1-.553 0-1-.448-1-1V1c0-.552.447-1 1-1 .553 0 1 .448 1 1v6z"
     fill="#99AAB5"
     id="path8" />
  <text
     xml:space="preserve"
     style="font-style:normal;font-weight:normal;font-size:13.33333302px;line-height:1.25;font-family:sans-serif;letter-spacing:0px;word-spacing:0px;fill:#000000;fill-opacity:1;stroke:none"
     x="8.5042381"
     y="14.682204"
     id="text829"><tspan
       sodipodi:role="line"
       id="tspan827"
       x="8.5042381"
       y="14.682204"
       style="font-style:normal;font-variant:normal;font-weight:600;font-stretch:normal;font-size:8px;font-family:'URW Gothic L';-inkscape-font-specification:'URW Gothic L Semi-Bold';fill:#ffffff;fill-opacity:1">NOV</tspan></text>
  <text
     xml:space="preserve"
     style="font-style:normal;font-weight:normal;font-size:13.33333302px;line-height:1.25;font-family:sans-serif;letter-spacing:0px;word-spacing:0px;fill:#66757f;fill-opacity:1;stroke:none"
     x="7.3220339"
     y="31.728813"
     id="text833"><tspan
       sodipodi:role="line"
       id="tspan831"
       x="7.3220339"
       y="31.728813"
       style="font-style:normal;font-variant:normal;font-weight:600;font-stretch:normal;font-size:18.66666603px;font-family:'URW Gothic L';-inkscape-font-specification:'URW Gothic L Semi-Bold';fill:#66757f;fill-opacity:1">30</tspan></text>
</svg>
