<?xml version="1.0" encoding="UTF-8" standalone="no"?>
<svg
   xmlns:dc="http://purl.org/dc/elements/1.1/"
   xmlns:cc="http://creativecommons.org/ns#"
   xmlns:rdf="http://www.w3.org/1999/02/22-rdf-syntax-ns#"
   xmlns:svg="http://www.w3.org/2000/svg"
   xmlns="http://www.w3.org/2000/svg"
   xmlns:sodipodi="http://sodipodi.sourceforge.net/DTD/sodipodi-0.dtd"
   xmlns:inkscape="http://www.inkscape.org/namespaces/inkscape"
   viewBox="0 0 36 36"
   version="1.1"
   id="svg1036"
   sodipodi:docname="1f4c5.svg"
   inkscape:version="0.92.4 (5da689c313, 2019-01-14)">
  <metadata
     id="metadata1042">
    <rdf:RDF>
      <cc:Work
         rdf:about="">
        <dc:format>image/svg+xml</dc:format>
        <dc:type
           rdf:resource="http://purl.org/dc/dcmitype/StillImage" />
      </cc:Work>
    </rdf:RDF>
  </metadata>
  <defs
     id="defs1040" />
  <sodipodi:namedview
     pagecolor="#ffffff"
     bordercolor="#666666"
     borderopacity="1"
     objecttolerance="10"
     gridtolerance="10"
     guidetolerance="10"
     inkscape:pageopacity="0"
     inkscape:pageshadow="2"
     inkscape:window-width="2666"
     inkscape:window-height="1616"
     id="namedview1038"
     showgrid="false"
     inkscape:zoom="25.534412"
     inkscape:cx="21.340157"
     inkscape:cy="17.16155"
     inkscape:window-x="0"
     inkscape:window-y="80"
     inkscape:window-maximized="1"
     inkscape:current-layer="svg1036" />
  <path
     fill="#E0E7EC"
     d="M36 32c0 2.209-1.791 4-4 4H4c-2.209 0-4-1.791-4-4V9c0-2.209 1.791-4 4-4h28c2.209 0 4 1.791 4 4v23z"
     id="path1012" />
  <path
     fill="#DD2F45"
     d="M34 0h-3.277c.172.295.277.634.277 1 0 1.104-.896 2-2 2s-2-.896-2-2c0-.366.105-.705.277-1H8.723C8.895.295 9 .634 9 1c0 1.104-.896 2-2 2s-2-.896-2-2c0-.366.105-.705.277-1H2C.896 0 0 .896 0 2v11h36V2c0-1.104-.896-2-2-2z"
     id="path1014" />
  <g
     fill="#F3AAB9"
     id="g1030">
    <circle
       cx="33"
       cy="10"
       r="1"
       id="circle1018" />
    <circle
       cx="33"
       cy="7"
       r="1"
       id="circle1020" />
    <circle
       cx="30"
       cy="10"
       r="1"
       id="circle1022" />
    <circle
       cx="30"
       cy="7"
       r="1"
       id="circle1024" />
    <circle
       cx="27"
       cy="10"
       r="1"
       id="circle1026" />
    <circle
       cx="27"
       cy="7"
       r="1"
       id="circle1028" />
  </g>
  <text
     xml:space="preserve"
     style="font-style:normal;font-weight:normal;font-size:26.66666603px;line-height:1.25;font-family:sans-serif;letter-spacing:0px;word-spacing:0px;fill:#000000;fill-opacity:1;stroke:none"
     x="3.1721897"
     y="10.779133"
     id="text1046"><tspan
       sodipodi:role="line"
       id="tspan1044"
       x="3.1721897"
       y="10.779133"
       style="font-style:normal;font-variant:normal;font-weight:600;font-stretch:normal;font-size:8px;font-family:'URW Gothic L';-inkscape-font-specification:'URW Gothic L Semi-Bold';fill:#ffffff;fill-opacity:1">NOV</tspan></text>
  <text
     xml:space="preserve"
     style="font-style:normal;font-weight:normal;font-size:13.33333302px;line-height:1.25;font-family:sans-serif;letter-spacing:0px;word-spacing:0px;fill:#66757f;fill-opacity:1;stroke:none"
     x="6.540194"
     y="31.104647"
     id="text1050"><tspan
       sodipodi:role="line"
       id="tspan1048"
       x="6.540194"
       y="31.104647"
       style="font-style:normal;font-variant:normal;font-weight:600;font-stretch:normal;font-size:20px;font-family:'URW Gothic L';-inkscape-font-specification:'URW Gothic L Semi-Bold';fill:#66757f;fill-opacity:1">30</tspan></text>
</svg>
