<?xml version="1.0" encoding="UTF-8" standalone="no"?>
<svg
   xmlns:dc="http://purl.org/dc/elements/1.1/"
   xmlns:cc="http://creativecommons.org/ns#"
   xmlns:rdf="http://www.w3.org/1999/02/22-rdf-syntax-ns#"
   xmlns:svg="http://www.w3.org/2000/svg"
   xmlns="http://www.w3.org/2000/svg"
   xmlns:sodipodi="http://sodipodi.sourceforge.net/DTD/sodipodi-0.dtd"
   xmlns:inkscape="http://www.inkscape.org/namespaces/inkscape"
   viewBox="0 0 36 36"
   version="1.1"
   id="svg7627"
   sodipodi:docname="1f4df.svg"
   inkscape:version="0.92.4 (5da689c313, 2019-01-14)">
  <metadata
     id="metadata7633">
    <rdf:RDF>
      <cc:Work
         rdf:about="">
        <dc:format>image/svg+xml</dc:format>
        <dc:type
           rdf:resource="http://purl.org/dc/dcmitype/StillImage" />
      </cc:Work>
    </rdf:RDF>
  </metadata>
  <defs
     id="defs7631" />
  <sodipodi:namedview
     pagecolor="#ffffff"
     bordercolor="#666666"
     borderopacity="1"
     objecttolerance="10"
     gridtolerance="10"
     guidetolerance="10"
     inkscape:pageopacity="0"
     inkscape:pageshadow="2"
     inkscape:window-width="2666"
     inkscape:window-height="1616"
     id="namedview7629"
     showgrid="false"
     inkscape:zoom="18.541911"
     inkscape:cx="26.895636"
     inkscape:cy="22.31455"
     inkscape:window-x="0"
     inkscape:window-y="80"
     inkscape:window-maximized="1"
     inkscape:current-layer="svg7627" />
  <path
     fill="#31373D"
     d="M36 27c0 2.209-1.791 4-4 4H4c-2.209 0-4-1.791-4-4V9c0-2.209 1.791-4 4-4h28c2.209 0 4 1.791 4 4v18z"
     id="path7617" />
  <path
     fill="#C6E5B3"
     d="M34 21c0 1.104-.896 2-2 2H4c-1.104 0-2-.896-2-2V9c0-1.104.896-2 2-2h28c1.104 0 2 .896 2 2v12z"
     id="path7619" />
  <path
     fill="#66757F"
     d="M14 27c0 1.104-.896 2-2 2H4c-1.104 0-2-.896-2-2s.896-2 2-2h8c1.104 0 2 .896 2 2zm14 0c0 1.104-.896 2-2 2h-8c-1.104 0-2-.896-2-2s.896-2 2-2h8c1.104 0 2 .896 2 2z"
     id="path7621" />
  <circle
     fill="#DD2E44"
     cx="32"
     cy="27"
     r="2"
     id="circle7623" />
  <text
     xml:space="preserve"
     style="font-style:normal;font-weight:normal;font-size:40px;line-height:1.25;font-family:sans-serif;letter-spacing:0px;word-spacing:0px;fill:#77b255;fill-opacity:1;stroke:none"
     x="8.2515764"
     y="17.177776"
     id="text7637"><tspan
       sodipodi:role="line"
       id="tspan7635"
       x="8.2515764"
       y="17.177776"
       style="font-style:normal;font-variant:normal;font-weight:600;font-stretch:normal;font-size:6.66666651px;font-family:'URW Gothic L';-inkscape-font-specification:'URW Gothic L Semi-Bold';fill:#77b255;fill-opacity:1">84433</tspan></text>
</svg>
