<?xml version="1.0" encoding="UTF-8" standalone="no"?>
<svg
   xmlns:dc="http://purl.org/dc/elements/1.1/"
   xmlns:cc="http://creativecommons.org/ns#"
   xmlns:rdf="http://www.w3.org/1999/02/22-rdf-syntax-ns#"
   xmlns:svg="http://www.w3.org/2000/svg"
   xmlns="http://www.w3.org/2000/svg"
   xmlns:sodipodi="http://sodipodi.sourceforge.net/DTD/sodipodi-0.dtd"
   xmlns:inkscape="http://www.inkscape.org/namespaces/inkscape"
   viewBox="0 0 36 36"
   version="1.1"
   id="svg6989"
   sodipodi:docname="1f4f2.svg"
   inkscape:version="0.92.4 (5da689c313, 2019-01-14)">
  <metadata
     id="metadata6995">
    <rdf:RDF>
      <cc:Work
         rdf:about="">
        <dc:format>image/svg+xml</dc:format>
        <dc:type
           rdf:resource="http://purl.org/dc/dcmitype/StillImage" />
      </cc:Work>
    </rdf:RDF>
  </metadata>
  <defs
     id="defs6993" />
  <sodipodi:namedview
     pagecolor="#ffffff"
     bordercolor="#666666"
     borderopacity="1"
     objecttolerance="10"
     gridtolerance="10"
     guidetolerance="10"
     inkscape:pageopacity="0"
     inkscape:pageshadow="2"
     inkscape:window-width="2666"
     inkscape:window-height="1616"
     id="namedview6991"
     showgrid="false"
     inkscape:zoom="6.5555556"
     inkscape:cx="-18.533898"
     inkscape:cy="18"
     inkscape:window-x="0"
     inkscape:window-y="80"
     inkscape:window-maximized="1"
     inkscape:current-layer="svg6989" />
  <path
     fill="#31373D"
     d="M18 36s-4 0-4-4V4s0-4 4-4h14s4 0 4 4v28s0 4-4 4H18z"
     id="path6985"
     style="fill:#5091f7;fill-opacity:0.94117647" />
  <path
     fill="#55ACEE"
     d="M16 5h18v26H16zm-3 11s1 1 1 2-1 2-1 2l-5 5c-1 1-3 1-3-1v-3H2s-2 0-2-2v-2c0-2 2-2 2-2h3v-3c0-2 2-2 3-1l5 5z"
     id="path6987"
     style="fill:#434343;fill-opacity:0.94117647" />
</svg>
