<?xml version="1.0" encoding="UTF-8" standalone="no"?>
<svg
   xmlns:dc="http://purl.org/dc/elements/1.1/"
   xmlns:cc="http://creativecommons.org/ns#"
   xmlns:rdf="http://www.w3.org/1999/02/22-rdf-syntax-ns#"
   xmlns:svg="http://www.w3.org/2000/svg"
   xmlns="http://www.w3.org/2000/svg"
   xmlns:sodipodi="http://sodipodi.sourceforge.net/DTD/sodipodi-0.dtd"
   xmlns:inkscape="http://www.inkscape.org/namespaces/inkscape"
   viewBox="0 0 36 36"
   version="1.1"
   id="svg9754"
   sodipodi:docname="2328.svg"
   inkscape:version="0.92.4 (5da689c313, 2019-01-14)">
  <metadata
     id="metadata9760">
    <rdf:RDF>
      <cc:Work
         rdf:about="">
        <dc:format>image/svg+xml</dc:format>
        <dc:type
           rdf:resource="http://purl.org/dc/dcmitype/StillImage" />
      </cc:Work>
    </rdf:RDF>
  </metadata>
  <defs
     id="defs9758" />
  <sodipodi:namedview
     pagecolor="#ffffff"
     bordercolor="#666666"
     borderopacity="1"
     objecttolerance="10"
     gridtolerance="10"
     guidetolerance="10"
     inkscape:pageopacity="0"
     inkscape:pageshadow="2"
     inkscape:window-width="2666"
     inkscape:window-height="1616"
     id="namedview9756"
     showgrid="false"
     inkscape:zoom="18.541911"
     inkscape:cx="5.0833164"
     inkscape:cy="18"
     inkscape:window-x="0"
     inkscape:window-y="80"
     inkscape:window-maximized="1"
     inkscape:current-layer="svg9754" />
  <path
     fill="#99AAB5"
     d="M36 28c0 1.104-.896 2-2 2H2c-1.104 0-2-.896-2-2V12c0-1.104.896-2 2-2h32c1.104 0 2 .896 2 2v16z"
     id="path9750"
     style="fill:#81aaf7;fill-opacity:0.94117647" />
  <path
     d="M5.5 19c0 .553-.448 1-1 1h-1c-.552 0-1-.447-1-1v-1c0-.553.448-1 1-1h1c.552 0 1 .447 1 1v1zm4 0c0 .553-.448 1-1 1h-1c-.552 0-1-.447-1-1v-1c0-.553.448-1 1-1h1c.552 0 1 .447 1 1v1zm4 0c0 .553-.448 1-1 1h-1c-.552 0-1-.447-1-1v-1c0-.553.448-1 1-1h1c.552 0 1 .447 1 1v1zm4 0c0 .553-.448 1-1 1h-1c-.552 0-1-.447-1-1v-1c0-.553.448-1 1-1h1c.552 0 1 .447 1 1v1zm4 0c0 .553-.447 1-1 1h-1c-.553 0-1-.447-1-1v-1c0-.553.447-1 1-1h1c.553 0 1 .447 1 1v1zm4 0c0 .553-.447 1-1 1h-1c-.553 0-1-.447-1-1v-1c0-.553.447-1 1-1h1c.553 0 1 .447 1 1v1zm4 0c0 .553-.447 1-1 1h-1c-.553 0-1-.447-1-1v-1c0-.553.447-1 1-1h1c.553 0 1 .447 1 1v1zm4 0c0 .553-.447 1-1 1h-1c-.553 0-1-.447-1-1v-1c0-.553.447-1 1-1h1c.553 0 1 .447 1 1v1zm-26 4c0 .553-.448 1-1 1h-1c-.552 0-1-.447-1-1v-1c0-.553.448-1 1-1h1c.552 0 1 .447 1 1v1zm4 0c0 .553-.448 1-1 1h-1c-.552 0-1-.447-1-1v-1c0-.553.448-1 1-1h1c.552 0 1 .447 1 1v1zm4 0c0 .553-.448 1-1 1h-1c-.552 0-1-.447-1-1v-1c0-.553.448-1 1-1h1c.552 0 1 .447 1 1v1zm4 0c0 .553-.447 1-1 1h-1c-.552 0-1-.447-1-1v-1c0-.553.448-1 1-1h1c.553 0 1 .447 1 1v1zm4 0c0 .553-.447 1-1 1h-1c-.553 0-1-.447-1-1v-1c0-.553.447-1 1-1h1c.553 0 1 .447 1 1v1zm4 0c0 .553-.447 1-1 1h-1c-.553 0-1-.447-1-1v-1c0-.553.447-1 1-1h1c.553 0 1 .447 1 1v1zm4 0c0 .553-.447 1-1 1h-1c-.553 0-1-.447-1-1v-1c0-.553.447-1 1-1h1c.553 0 1 .447 1 1v1zM10 27c0 .553-.448 1-1 1H7c-.552 0-1-.447-1-1v-1c0-.553.448-1 1-1h2c.552 0 1 .447 1 1v1zm20 0c0 .553-.447 1-1 1h-2c-.553 0-1-.447-1-1v-1c0-.553.447-1 1-1h2c.553 0 1 .447 1 1v1zm-5 0c0 .553-.447 1-1 1H12c-.552 0-1-.447-1-1v-1c0-.553.448-1 1-1h12c.553 0 1 .447 1 1v1zM5.5 13.083c0 .552-.448 1-1 1h-1c-.552 0-1-.448-1-1s.448-1 1-1h1c.552 0 1 .448 1 1zm4 0c0 .552-.448 1-1 1h-1c-.552 0-1-.448-1-1s.448-1 1-1h1c.552 0 1 .448 1 1zm4 0c0 .552-.448 1-1 1h-1c-.552 0-1-.448-1-1s.448-1 1-1h1c.552 0 1 .448 1 1zm4 0c0 .552-.448 1-1 1h-1c-.552 0-1-.448-1-1s.448-1 1-1h1c.552 0 1 .448 1 1zm4 0c0 .552-.447 1-1 1h-1c-.553 0-1-.448-1-1s.447-1 1-1h1c.553 0 1 .448 1 1zm4 0c0 .552-.447 1-1 1h-1c-.553 0-1-.448-1-1s.447-1 1-1h1c.553 0 1 .448 1 1zm4 0c0 .552-.447 1-1 1h-1c-.553 0-1-.448-1-1s.447-1 1-1h1c.553 0 1 .448 1 1zm4 0c0 .552-.447 1-1 1h-1c-.553 0-1-.448-1-1s.447-1 1-1h1c.553 0 1 .448 1 1z"
     fill="#292F33"
     id="path9752"
     style="fill:#5091f7;fill-opacity:0.94117647" />
</svg>
